# xmcd
#
# Track frame offsets: 
#        150
#        18326
#        38595
#        62779
#        87681
#        111694
#        129874
#        156264
#        176596
#        192819
#        219534
#        239534
#
# Disc length: 3406 seconds
#
# Revision: 1
# Processed by: cddbd v1.5.2PL0 Copyright (c) Steve Scherf et al.
# Submitted via: ExactAudioCopy v0.95a4
#
DISCID=a80d4c0c
DTITLE=Mud Morganfield - They Call Me Mud
DYEAR=2018
DGENRE=Blues
TTITLE0=They Call Me Mud
TTITLE1=40 Days
TTITLE2=Cheatin' Is Cheatin'
TTITLE3=Who's Foolin' Who?
TTITLE4=Howling Wolf
TTITLE5=24 Hours
TTITLE6=Who Loves You
TTITLE7=Oh Yeah
TTITLE8=Can't Get No Grindin'
TTITLE9=Rough Around The Edge
TTITLE10=Walkin' Cane
TTITLE11=Mud's Groove
EXTD=
EXTT0=
EXTT1=
EXTT2=
EXTT3=
EXTT4=
EXTT5=
EXTT6=
EXTT7=
EXTT8=
EXTT9=
EXTT10=
EXTT11=
PLAYORDER=
